<?xml version="1.0" encoding="utf-8"?>
<!-- Generator: Adobe Illustrator 26.0.3, SVG Export Plug-In . SVG Version: 6.00 Build 0)  -->
<svg version="1.1" id="Layer_1" xmlns="http://www.w3.org/2000/svg" xmlns:xlink="http://www.w3.org/1999/xlink" x="0px" y="0px"
	 viewBox="0 0 900 252" style="enable-background:new 0 0 900 252;" xml:space="preserve">
<style type="text/css">
	.st0{fill:#0091EA;}
	.st1{fill:#FFFFFF;}
	.st2{fill:#E0F2FC;}
</style>
<rect class="st0" width="900" height="252"/>
<polygon class="st1" points="289,238 887,238 887,14 289,14 429,127 "/>
<g>
	<path class="st2" d="M50.1,162.8c7.4,4.5,18.1,8.3,29.4,8.3c16.8,0,26.6-8.9,26.6-21.7c0-11.9-6.8-18.7-23.9-25.3
		c-20.7-7.4-33.6-18.1-33.6-36c0-19.8,16.4-34.5,41.1-34.5c13,0,22.4,3,28.1,6.2l-4.5,13.4c-4.1-2.3-12.6-6-24.1-6
		c-17.3,0-23.9,10.4-23.9,19c0,11.9,7.7,17.7,25.3,24.5c21.5,8.3,32.4,18.7,32.4,37.3c0,19.6-14.5,36.6-44.5,36.6
		c-12.3,0-25.6-3.6-32.4-8.1L50.1,162.8z"/>
	<path class="st2" d="M155.1,140.2c0.4,22.4,14.7,31.7,31.3,31.7c11.9,0,19-2.1,25.3-4.7l2.8,11.9c-5.8,2.6-15.8,5.7-30.3,5.7
		c-28.1,0-44.9-18.5-44.9-46c0-27.5,16.2-49.2,42.8-49.2c29.8,0,37.7,26.2,37.7,43c0,3.4-0.4,6-0.6,7.7H155.1z M203.7,128.3
		c0.2-10.6-4.3-27-23-27c-16.8,0-24.1,15.5-25.4,27H203.7z"/>
	<path class="st2" d="M322.8,136.4c0,33.7-23.4,48.4-45.4,48.4c-24.7,0-43.7-18.1-43.7-46.9c0-30.5,20-48.4,45.2-48.4
		C305.1,89.5,322.8,108.5,322.8,136.4z M250.4,137.4c0,20,11.5,35.1,27.7,35.1c15.8,0,27.7-14.9,27.7-35.4
		c0-15.5-7.7-35.1-27.3-35.1C258.9,101.9,250.4,120,250.4,137.4z"/>
</g>
<g>
	<path class="st0" d="M476.1,162.8c7.4,4.5,18.1,8.3,29.4,8.3c16.8,0,26.6-8.9,26.6-21.7c0-11.9-6.8-18.7-23.9-25.3
		c-20.7-7.4-33.6-18.1-33.6-36c0-19.8,16.4-34.5,41.1-34.5c13,0,22.4,3,28.1,6.2l-4.5,13.4c-4.1-2.3-12.6-6-24.1-6
		c-17.3,0-23.9,10.4-23.9,19c0,11.9,7.7,17.7,25.3,24.5c21.5,8.3,32.4,18.7,32.4,37.3c0,19.6-14.5,36.6-44.5,36.6
		c-12.3,0-25.6-3.6-32.4-8.1L476.1,162.8z"/>
	<path class="st0" d="M589.2,65.9c0.2,5.7-4,10.2-10.6,10.2c-5.8,0-10-4.5-10-10.2c0-5.8,4.3-10.4,10.4-10.4
		C585.3,55.5,589.2,60.1,589.2,65.9z M570.7,182.8V91.6h16.6v91.2H570.7z"/>
	<path class="st0" d="M614.1,182.8c0.4-6.2,0.8-15.5,0.8-23.6V49h16.4v57.3h0.4c5.8-10.2,16.4-16.8,31.1-16.8
		c22.6,0,38.6,18.9,38.5,46.6c0,32.6-20.5,48.8-40.9,48.8c-13.2,0-23.8-5.1-30.5-17.2h-0.6l-0.8,15.1H614.1z M631.3,146.2
		c0,2.1,0.4,4.1,0.8,6c3.2,11.5,12.8,19.4,24.9,19.4c17.3,0,27.7-14.1,27.7-35.1c0-18.3-9.4-33.9-27.1-33.9
		c-11.3,0-21.9,7.7-25.3,20.4c-0.4,1.9-0.9,4.1-0.9,6.8V146.2z"/>
	<path class="st0" d="M722.1,49h16.6v56.9h0.4c2.6-4.7,6.8-8.9,11.9-11.7c4.9-2.8,10.7-4.7,17-4.7c12.3,0,31.9,7.5,31.9,39v54.3
		h-16.6v-52.4c0-14.7-5.5-27.1-21.1-27.1c-10.7,0-19.2,7.5-22.2,16.6c-0.9,2.3-1.1,4.7-1.1,7.9v55h-16.6V49z"/>
	<path class="st0" d="M823.5,173.2c0-6.8,4.7-11.7,11.1-11.7c6.8,0,11.1,4.9,11.1,11.7c0,6.6-4.3,11.7-11.1,11.7
		C828.1,184.9,823.5,179.8,823.5,173.2z M828.2,146.2l-2.6-90.5h18.1l-2.6,90.5H828.2z"/>
</g>
</svg>
